<svg width="793" height="559" viewBox="0 0 793 559" fill="none" xmlns="http://www.w3.org/2000/svg">
<rect x="660" y="152" width="15" height="109" rx="7.5" fill="#55ACEE"/>
<rect x="660" y="152" width="15" height="109" rx="7.5" fill="#55ACEE"/>
<rect x="722" y="197" width="17" height="107" rx="8.5" transform="rotate(90 722 197)" fill="#55ACEE"/>
<rect x="722" y="197" width="17" height="107" rx="8.5" transform="rotate(90 722 197)" fill="#55ACEE"/>
<path fill-rule="evenodd" clip-rule="evenodd" d="M521.021 218.53C523.637 218.84 526.3 219 529 219C566.003 219 596 189.003 596 152C596 114.997 566.003 85 529 85C502.854 85 480.207 99.9761 469.167 121.818C493.357 149.196 511.369 182.161 521.021 218.53Z" fill="#55ACEE"/>
<path fill-rule="evenodd" clip-rule="evenodd" d="M443.882 462.877C495.931 419.035 529 353.38 529 280C529 269.155 528.278 258.478 526.879 248.016C527.584 248.005 528.292 248 529 248C605.768 248 668 310.4 668 387.375C668 464.35 605.768 471 529 471C496.932 471 467.4 469.84 443.882 462.877Z" fill="#55ACEE"/>
<path d="M289.875 62C169.557 62 72 159.557 72 279.875C72 400.193 169.557 497.75 289.875 497.75C410.193 497.75 507.75 400.193 507.75 279.875C507.75 159.557 410.193 62 289.875 62ZM394.581 226.233C394.727 228.519 394.727 230.902 394.727 233.236C394.727 304.629 340.356 386.867 240.999 386.867C210.36 386.867 181.959 377.967 158.031 362.648C162.408 363.134 166.591 363.329 171.065 363.329C196.354 363.329 219.601 354.77 238.13 340.277C214.397 339.791 194.457 324.228 187.649 302.83C195.965 304.046 203.454 304.046 212.014 301.857C199.794 299.374 188.81 292.738 180.929 283.074C173.047 273.411 168.754 261.317 168.779 248.847V248.166C175.928 252.203 184.342 254.683 193.144 255.024C185.744 250.092 179.676 243.411 175.477 235.572C171.277 227.733 169.077 218.98 169.071 210.087C169.071 200.02 171.697 190.828 176.415 182.853C189.978 199.55 206.904 213.206 226.091 222.934C245.279 232.662 266.298 238.243 287.784 239.315C280.148 202.597 307.577 172.883 340.55 172.883C356.113 172.883 370.119 179.4 379.992 189.904C392.198 187.619 403.87 183.047 414.278 176.919C410.241 189.418 401.779 199.971 390.545 206.634C401.439 205.467 411.943 202.452 421.67 198.221C414.326 209.017 405.135 218.598 394.581 226.233Z" fill="#55ACEE"/>
</svg>
